<?xml version="1.0" encoding="UTF-8"?>
<svg width="24px" height="24px" viewBox="0 0 24 24" version="1.1" xmlns="http://www.w3.org/2000/svg" xmlns:xlink="http://www.w3.org/1999/xlink">
    <title>icon/login_del</title>
    <g id="icon/login_del" stroke="none" stroke-width="1" fill="none" fill-rule="evenodd">
        <g>
            <rect id="矩形" x="0" y="0" width="24" height="24"></rect>
            <path d="M12,4 C16.418278,4 20,7.581722 20,12 C20,16.418278 16.418278,20 12,20 C7.581722,20 4,16.418278 4,12 C4,7.581722 7.581722,4 12,4 Z M10.5857864,9.17157288 C10.1952621,8.78104858 9.56209717,8.78104858 9.17157288,9.17157288 C8.78104858,9.56209717 8.78104858,10.1952621 9.17157288,10.5857864 L9.17157288,10.5857864 L10.5857864,12 L9.17157288,13.4142136 C8.78104858,13.8047379 8.78104858,14.4379028 9.17157288,14.8284271 C9.56209717,15.2189514 10.1952621,15.2189514 10.5857864,14.8284271 L10.5857864,14.8284271 L12,13.4142136 L13.4142136,14.8284271 C13.8047379,15.2189514 14.4379028,15.2189514 14.8284271,14.8284271 C15.2189514,14.4379028 15.2189514,13.8047379 14.8284271,13.4142136 L14.8284271,13.4142136 L13.4149207,11.9992929 L14.8284271,10.5857864 C15.2189514,10.1952621 15.2189514,9.56209717 14.8284271,9.17157288 C14.4379028,8.78104858 13.8047379,8.78104858 13.4142136,9.17157288 L13.4142136,9.17157288 L12,10.5857864 Z" id="形状结合" fill="#C8CACC"></path>
        </g>
    </g>
</svg>