<?xml version="1.0" encoding="UTF-8"?>
<svg width="40px" height="40px" viewBox="0 0 40 40" version="1.1" xmlns="http://www.w3.org/2000/svg" xmlns:xlink="http://www.w3.org/1999/xlink">
    <title>pic/login_wechat@2x</title>
    <g id="pic/login_wechat" stroke="none" stroke-width="1" fill="none" fill-rule="evenodd">
        <g>
            <path d="M20,0 C31.045695,-2.02906125e-15 40,8.954305 40,20 C40,31.045695 31.045695,40 20,40 C8.954305,40 1.3527075e-15,31.045695 0,20 C-1.3527075e-15,8.954305 8.954305,2.02906125e-15 20,0 Z" id="矩形" fill="#07C160"></path>
            <g id="symbol" transform="translate(9.000000, 11.000000)" fill="#FFFFFF">
                <path d="M19.6092144,15.8355405 C20.9989802,14.8203694 21.8869081,13.3186216 21.8869081,11.6501892 C21.8869081,8.59199099 18.9355387,6.11332432 15.2944396,6.11332432 C11.6537369,6.11332432 8.70197117,8.59199099 8.70197117,11.6501892 C8.70197117,14.7083874 11.6537369,17.1874505 15.2944396,17.1874505 C16.0466018,17.1874505 16.7729982,17.079036 17.4464757,16.884009 C17.5077189,16.8651802 17.5727279,16.8546757 17.6403135,16.8546757 C17.766764,16.8546757 17.8817189,16.8935225 17.9903315,16.9567477 L19.4332144,17.7967117 C19.4736468,17.8197027 19.5126919,17.8379369 19.5604577,17.8379369 C19.6819532,17.8379369 19.7802595,17.7386396 19.7802595,17.6165495 C19.7802595,17.5614505 19.7584577,17.5069459 19.744782,17.4544234 C19.7364577,17.4231081 19.5588721,16.7547838 19.4476829,16.3375766 C19.4349982,16.2906036 19.4244937,16.2454144 19.4244937,16.1964595 C19.4244937,16.0478108 19.4974306,15.9158108 19.6092144,15.8355405 M13.0970162,10.7077568 C12.6425477,10.7077568 12.2738991,10.3365315 12.2738991,9.8784955 C12.2738991,9.42026126 12.6425477,9.04883784 13.0970162,9.04883784 C13.5516829,9.04883784 13.9201333,9.42026126 13.9201333,9.8784955 C13.9201333,10.3365315 13.5516829,10.7077568 13.0970162,10.7077568 M17.4920613,10.7077568 C17.0373946,10.7077568 16.6693405,10.3365315 16.6693405,9.8784955 C16.6693405,9.42026126 17.0373946,9.04883784 17.4920613,9.04883784 C17.9467279,9.04883784 18.3151784,9.42026126 18.3151784,9.8784955 C18.3151784,10.3365315 17.9467279,10.7077568 17.4920613,10.7077568" id="Fill-17"></path>
                <path d="M7.91088288,0 C3.5418018,0 0,2.97495495 0,6.6443964 C0,8.64679279 1.06571171,10.449009 2.73335135,11.6669369 C2.86733333,11.7632613 2.95493694,11.9212252 2.95493694,12.1001982 C2.95493694,12.1590631 2.94245045,12.2127748 2.92699099,12.2694595 C2.7938018,12.7703063 2.58054054,13.5722162 2.57063063,13.6096757 C2.55398198,13.6727027 2.52821622,13.7381081 2.52821622,13.8039099 C2.52821622,13.9507748 2.64614414,14.0694955 2.79181982,14.0694955 C2.8492973,14.0694955 2.89587387,14.0482883 2.94403604,14.0201441 L4.67628829,13.0123063 C4.80630631,12.9367928 4.94405405,12.8902162 5.09607207,12.8902162 C5.17713514,12.8902162 5.25502703,12.9023063 5.32855856,12.9249009 C6.13661261,13.1591712 7.00809009,13.2891892 7.91088288,13.2891892 C8.05675676,13.2891892 8.20144144,13.2852252 8.34533333,13.2788829 C8.1732973,12.7603964 8.07974775,12.2147568 8.07974775,11.6502883 C8.07974775,8.30371171 11.3097838,5.59037838 15.2945586,5.59037838 C15.4388468,5.59037838 15.4757117,5.59493694 15.6178198,5.60187387 C15.022036,2.42753153 11.8576036,0 7.91088288,0 M5.27425225,5.46095495 C4.75735135,5.46095495 4.33855856,5.03879279 4.33855856,4.51832432 C4.33855856,3.99765766 4.75735135,3.57569369 5.27425225,3.57569369 C5.79036036,3.57569369 6.20915315,3.99765766 6.20915315,4.51832432 C6.20915315,5.03879279 5.79036036,5.46095495 5.27425225,5.46095495 M10.5479099,5.46075676 C10.0314054,5.46075676 9.61261261,5.03879279 9.61261261,4.51832432 C9.61261261,3.99765766 10.0314054,3.57569369 10.5479099,3.57569369 C11.0644144,3.57569369 11.4832072,3.99765766 11.4832072,4.51832432 C11.4832072,5.03879279 11.0644144,5.46075676 10.5479099,5.46075676" id="Fill-1"></path>
            </g>
        </g>
    </g>
</svg>