<?xml version="1.0" encoding="UTF-8"?>
<svg width="14px" height="14px" viewBox="0 0 14 14" version="1.1" xmlns="http://www.w3.org/2000/svg" xmlns:xlink="http://www.w3.org/1999/xlink">
    <title>icon/sel@3x</title>
    <g id="icon/sel" stroke="none" stroke-width="1" fill="none" fill-rule="evenodd">
        <g>
            <polygon id="矩形" transform="translate(7.000000, 7.000000) scale(1, -1) translate(-7.000000, -7.000000) " points="0 0 14 0 14 14 0 14"></polygon>
            <g id="编组" transform="translate(4.585786, 3.170000)" fill="#C8CACC">
                <path d="M1.70710678,0.292893219 L4.53553391,3.12132034 C4.9260582,3.51184464 4.9260582,4.14500961 4.53553391,4.53553391 L4.53553391,4.53553391 L1.70710678,7.36396103 C1.31658249,7.75448532 0.683417511,7.75448532 0.292893219,7.36396103 C-0.0976310729,6.97343674 -0.0976310729,6.34027176 0.292893219,5.94974747 L0.292893219,5.94974747 L2.414,3.828 L0.292893219,1.70710678 C-0.0976310729,1.31658249 -0.0976310729,0.683417511 0.292893219,0.292893219 C0.683417511,-0.0976310729 1.31658249,-0.0976310729 1.70710678,0.292893219 Z" id="形状结合"></path>
            </g>
        </g>
    </g>
</svg>