<?xml version="1.0" encoding="UTF-8"?>
<svg width="20px" height="20px" viewBox="0 0 20 20" version="1.1" xmlns="http://www.w3.org/2000/svg" xmlns:xlink="http://www.w3.org/1999/xlink">
    <title>icon/wechatpay</title>
    <g id="icon/wechatpay" stroke="none" stroke-width="1" fill="none" fill-rule="evenodd">
        <g>
            <rect id="矩形" x="0" y="0" width="20" height="20"></rect>
            <path d="M7.81907498,11.5225601 C7.7469645,11.5585933 7.66539994,11.5795514 7.57901566,11.5795514 C7.3791825,11.5795514 7.20511632,11.4703488 7.11391232,11.3089348 L7.07906201,11.2330077 L5.62257855,8.0635571 C5.60682176,8.02899464 5.59699694,7.9902038 5.59699694,7.95214833 C5.59699694,7.80617712 5.71637779,7.68759849 5.86375012,7.68759849 C5.92362592,7.68759849 5.97868199,7.70726967 6.02335712,7.74017754 L7.74177403,8.95372413 C7.8674576,9.03516651 8.01742516,9.08296565 8.17870053,9.08296565 C8.275095,9.08296565 8.36685513,9.06513289 8.45249791,9.03424729 L16.534804,5.46659313 C15.0861062,3.77340057 12.7001576,2.66666667 10,2.66666667 C5.5816109,2.66666667 2,5.62672024 2,9.27839059 C2,11.2706955 3.07757902,13.0638985 4.76429697,14.2759744 C4.89961998,14.3717565 4.98822875,14.529126 4.98822875,14.7067181 C4.98822875,14.765364 4.97543795,14.8194138 4.9600519,14.875302 C4.82547039,15.3737 4.60969506,16.1717617 4.59949949,16.2090818 C4.58281583,16.2715884 4.55649272,16.3368526 4.55649272,16.4023007 C4.55649272,16.5482719 4.67587357,16.6666667 4.8232459,16.6666667 C4.88126796,16.6666667 4.92835295,16.6455247 4.97729169,16.6175806 L6.72870516,15.6147179 C6.86050607,15.5393424 6.99990731,15.4926463 7.15358235,15.4926463 C7.23533228,15.4926463 7.3143016,15.5051476 7.38863657,15.5277603 C8.20576513,15.7606891 9.08721846,15.8902984 10,15.8902984 C14.4182037,15.8902984 18,12.9300609 18,9.27839059 C18,8.17239206 17.6696635,7.13073852 17.0887015,6.21464965 L7.87746779,11.4891007 L7.81907498,11.5225601 Z" id="Fill-1" fill="#09BB07"></path>
        </g>
    </g>
</svg>