<?xml version="1.0" encoding="UTF-8"?>
<svg width="28px" height="28px" viewBox="0 0 28 28" version="1.1" xmlns="http://www.w3.org/2000/svg" xmlns:xlink="http://www.w3.org/1999/xlink">
    <title>pic/logo</title>
    <defs>
        <path d="M18.238104,0 C21.0493508,0 22.4545076,0 23.9674661,0.478333333 C25.6194937,1.0794 26.920582,2.38093333 27.5221254,4.03246667 C28,5.5454 28,6.951 28,9.7622 L28,18.2378 C28,21.049 28,22.4541333 27.5221254,23.9675333 C26.920582,25.6190667 25.6194937,26.9201333 23.9674661,27.5216667 C22.4545076,28 21.0493508,28 18.238104,28 L9.76189603,28 C6.95111585,28 5.54549242,28 4.03253388,27.5216667 C2.38050634,26.9201333 1.07941799,25.6190667 0.477874631,23.9675333 C0,22.4541333 0,21.049 0,18.2378 L0,9.7622 C0,6.951 0,5.5454 0.477874631,4.03246667 C1.07941799,2.38093333 2.38050634,1.0794 4.03253388,0.478333333 C5.54549242,0 6.95111585,0 9.76189603,0 L18.238104,0 Z" id="path-1"></path>
        <linearGradient x1="50%" y1="0%" x2="50%" y2="100%" id="linearGradient-3">
            <stop stop-color="#6A7585" offset="0%"></stop>
            <stop stop-color="#565F6B" offset="100%"></stop>
        </linearGradient>
        <rect id="path-4" x="0" y="0" width="28.0004667" height="28"></rect>
    </defs>
    <g id="pic/logo" stroke="none" stroke-width="1" fill="none" fill-rule="evenodd">
        <mask id="mask-2" fill="white">
            <use xlink:href="#path-1"></use>
        </mask>
        <g id="mask"></g>
        <g id="编组" mask="url(#mask-2)">
            <g id="Icon_Art">
                <rect id="bg" fill="url(#linearGradient-3)" x="0" y="0" width="28.0004667" height="28"></rect>
                <g id="grid">
                    <mask id="mask-5" fill="white">
                        <use xlink:href="#path-4"></use>
                    </mask>
                    <g id="mask"></g>
                    <path d="M19.3094718,24.8433267 C20.4922582,24.26186 21.5665428,23.49326 22.4933582,22.5753267 L25.9938832,26.0757933 L19.3094718,26.0757933 L19.3094718,24.8433267 Z M14.0593843,26.0757933 L14.0593843,26.0743933 C15.8952816,26.0655267 17.6357439,25.6455267 19.1928032,24.9007267 L19.1928032,26.0757933 L14.0593843,26.0757933 Z M8.80929682,26.0757933 L8.80929682,24.9007267 C10.3663561,25.6455267 12.1068184,26.0655267 13.9427157,26.0743933 L13.9427157,26.0757933 L8.80929682,26.0757933 Z M2.00845014,26.0757933 L5.50874181,22.5753267 C6.43555726,23.49326 7.51007517,24.26186 8.69262821,24.8433267 L8.69262821,26.0757933 L2.00845014,26.0757933 Z M3.15833597,19.3091267 C3.73981233,20.4918933 4.50842514,21.56616 5.42637377,22.49296 L1.92584877,25.9934267 L1.92584877,19.3091267 L3.15833597,19.3091267 Z M1.92584877,14.0591267 L1.92724879,14.0591267 C1.9361156,15.8952267 2.3561226,17.6354267 3.10093502,19.19246 L1.92584877,19.19246 L1.92584877,14.0591267 Z M1.92584877,8.80912667 L3.10093502,8.80912667 C2.3561226,10.36616 1.9361156,12.1065933 1.92724879,13.94246 L1.92584877,13.94246 L1.92584877,8.80912667 Z M1.92584877,2.00839333 L5.42637377,5.50862667 C4.50842514,6.43542667 3.73981233,7.50992667 3.15833597,8.69246 L1.92584877,8.69246 L1.92584877,2.00839333 Z M8.69262821,3.15826 C7.51007517,3.73972667 6.43555726,4.50832667 5.50874181,5.42626 L2.00845014,1.92579333 L8.69262821,1.92579333 L8.69262821,3.15826 Z M13.9427157,1.92579333 L13.9427157,1.92719333 C12.1068184,1.93606 10.3663561,2.35629333 8.80929682,3.10086 L8.80929682,1.92579333 L13.9427157,1.92579333 Z M19.1928032,1.92579333 L19.1928032,3.10086 C17.6357439,2.35629333 15.8952816,1.93606 14.0593843,1.92719333 L14.0593843,1.92579333 L19.1928032,1.92579333 Z M25.9938832,1.92579333 L22.4933582,5.42626 C21.5665428,4.50832667 20.4922582,3.73972667 19.3094718,3.15826 L19.3094718,1.92579333 L25.9938832,1.92579333 Z M24.8437641,8.69246 C24.262521,7.50992667 23.4939082,6.43542667 22.5759596,5.50862667 L26.0762513,2.00839333 L26.0762513,8.69246 L24.8437641,8.69246 Z M26.0762513,13.94246 L26.0748512,13.94246 C26.0662178,12.1065933 25.6459774,10.36616 24.9013984,8.80912667 L26.0762513,8.80912667 L26.0762513,13.94246 Z M26.0762513,19.19246 L24.9013984,19.19246 C25.6459774,17.6354267 26.0662178,15.8952267 26.0748512,14.0591267 L26.0762513,14.0591267 L26.0762513,19.19246 Z M19.3920732,19.3091267 L24.7126285,19.3091267 C24.1402523,20.4599267 23.3889065,21.5061933 22.4933582,22.41036 L19.3920732,19.3091267 Z M19.3094718,19.3914933 L22.4109902,22.49296 C21.5065751,23.3884933 20.460291,24.1395933 19.3094718,24.7121933 L19.3094718,19.3914933 Z M14.0593843,21.5243933 C16.0481175,21.5089933 17.8543809,20.7182267 19.1928032,19.44026 L19.1928032,24.77216 C17.6383106,25.5244267 15.8971483,25.94886 14.0593843,25.9577267 L14.0593843,21.5243933 Z M8.80929682,19.44026 C10.1477191,20.7182267 11.9539826,21.5089933 13.9427157,21.5243933 L13.9427157,25.9577267 C12.1049518,25.94886 10.3637894,25.5244267 8.80929682,24.77216 L8.80929682,19.44026 Z M8.69262821,19.3917267 L8.69262821,24.7121933 C7.54204237,24.1395933 6.49552493,23.3884933 5.59134319,22.49296 L8.69262821,19.3917267 Z M8.61026017,19.3091267 L5.50874181,22.41036 C4.61319355,21.5061933 3.86208104,20.4599267 3.28947149,19.3091267 L8.61026017,19.3091267 Z M6.47732462,14.0591267 C6.49272488,16.0478267 7.28350473,17.85406 8.56149269,19.19246 L3.22950383,19.19246 C2.47722462,17.6379933 2.05278421,15.89686 2.0439174,14.0591267 L6.47732462,14.0591267 Z M8.56149269,8.80912667 C7.28350473,10.1475267 6.49272488,11.95376 6.47732462,13.94246 L2.0439174,13.94246 C2.05278421,12.1047267 2.47722462,10.3635933 3.22973716,8.80912667 L8.56149269,8.80912667 Z M8.61026017,8.69246 L3.28947149,8.69246 C3.86208104,7.54189333 4.61319355,6.49539333 5.50874181,5.59122667 L8.61026017,8.69246 Z M8.69262821,8.60986 L5.59134319,5.50862667 C6.49552493,4.61309333 7.54204237,3.86199333 8.69262821,3.28939333 L8.69262821,8.60986 Z M13.9427157,6.47719333 C11.9539826,6.49259333 10.1477191,7.28336 8.80929682,8.56132667 L8.80929682,3.22966 C10.3637894,2.47716 12.1049518,2.05272667 13.9427157,2.04386 L13.9427157,6.47719333 Z M19.1928032,8.56132667 C17.8543809,7.28336 16.0481175,6.49259333 14.0593843,6.47719333 L14.0593843,2.04386 C15.8971483,2.05272667 17.6383106,2.47716 19.1928032,3.22966 L19.1928032,8.56132667 Z M19.3094718,8.61009333 L19.3094718,3.28939333 C20.460291,3.86199333 21.5065751,4.61309333 22.4109902,5.50862667 L19.3094718,8.61009333 Z M19.3920732,8.69246 L22.4933582,5.59122667 C23.3889065,6.49539333 24.140019,7.54189333 24.7126285,8.69246 L19.3920732,8.69246 Z M21.5247754,13.94246 C21.5096085,11.95376 20.7185953,10.1475267 19.4406073,8.80912667 L24.7725962,8.80912667 C25.5248754,10.3635933 25.9493158,12.1047267 25.9581826,13.94246 L21.5247754,13.94246 Z M21.5247754,14.0591267 L25.9581826,14.0591267 C25.9493158,15.89686 25.5248754,17.6379933 24.7725962,19.19246 L19.4406073,19.19246 C20.7185953,17.85406 21.5096085,16.0478267 21.5247754,14.0591267 L21.5247754,14.0591267 Z M14.0593843,19.3091267 L19.1613027,19.3091267 C17.839214,20.5947933 16.0411174,21.3923267 14.0593843,21.4077267 L14.0593843,19.3091267 Z M13.9427157,19.3091267 L13.9427157,21.4077267 C11.9609827,21.3923267 10.162886,20.5947933 8.84079735,19.3091267 L13.9427157,19.3091267 Z M8.69262821,14.0591267 L8.69262821,19.16096 C7.40717345,17.8388933 6.60962683,16.0408267 6.59399323,14.0591267 L8.69262821,14.0591267 Z M8.69262821,13.94246 L6.59399323,13.94246 C6.60962683,11.96076 7.40717345,10.1626933 8.69262821,8.84062667 L8.69262821,13.94246 Z M13.9427157,8.69246 L8.84079735,8.69246 C10.162886,7.40702667 11.9609827,6.60949333 13.9427157,6.59386 L13.9427157,8.69246 Z M14.0593843,8.69246 L14.0593843,6.59386 C16.0411174,6.60949333 17.839214,7.40702667 19.1613027,8.69246 L14.0593843,8.69246 Z M19.3094718,13.94246 L19.3094718,8.84062667 C20.5951599,10.1626933 21.3927065,11.96076 21.4081068,13.94246 L19.3094718,13.94246 Z M19.3094718,14.0591267 L21.4081068,14.0591267 C21.3927065,16.0408267 20.5951599,17.8388933 19.3094718,19.1611933 L19.3094718,14.0591267 Z M14.0593843,14.1414933 L19.1104352,19.19246 L14.0593843,19.19246 L14.0593843,14.1414933 Z M13.9427157,14.1417267 L13.9427157,19.19246 L8.8918982,19.19246 L13.9427157,14.1417267 Z M13.8603477,14.0591267 L8.80929682,19.1100933 L8.80929682,14.0591267 L13.8603477,14.0591267 Z M13.8603477,13.94246 L8.80929682,13.94246 L8.80929682,8.89149333 L13.8603477,13.94246 Z M13.9427157,13.85986 L8.8918982,8.80912667 L13.9427157,8.80912667 L13.9427157,13.85986 Z M14.0593843,13.8600933 L14.0593843,8.80912667 L19.1104352,8.80912667 L14.0593843,13.8600933 Z M19.1928032,14.0591267 L19.1928032,19.10986 L14.1419857,14.0591267 L19.1928032,14.0591267 Z M14.1419857,13.94246 L19.1928032,8.89172667 L19.1928032,13.94246 L14.1419857,13.94246 Z M26.0762513,25.9934267 L22.5759596,22.49296 C23.4939082,21.56616 24.262521,20.4918933 24.8437641,19.3091267 L26.0762513,19.3091267 L26.0762513,25.9934267 Z M28.317222,28.2341267 L26.2755213,26.19246 L28.0596177,26.19246 L28.0596177,26.0757933 L26.1929199,26.0757933 L26.1929199,19.3091267 L28.0596177,19.3091267 L28.0596177,19.19246 L26.1929199,19.19246 L26.1929199,14.0591267 L28.0596177,14.0591267 L28.0596177,13.94246 L26.1929199,13.94246 L26.1929199,8.80912667 L28.0596177,8.80912667 L28.0596177,8.69246 L26.1929199,8.69246 L26.1929199,1.92579333 L28.0596177,1.92579333 L28.0596177,1.80912667 L26.2755213,1.80912667 L28.0838847,0.000793334724 L28.0012834,-0.0815733319 L26.1929199,1.72676 L26.1929199,-0.0575399986 L26.0762513,-0.0575399986 L26.0762513,1.80912667 L19.3094718,1.80912667 L19.3094718,-0.0575399986 L19.1928032,-0.0575399986 L19.1928032,1.80912667 L14.0593843,1.80912667 L14.0593843,-0.0575399986 L13.9427157,-0.0575399986 L13.9427157,1.80912667 L8.80929682,1.80912667 L8.80929682,-0.0575399986 L8.69262821,-0.0575399986 L8.69262821,1.80912667 L1.92584877,1.80912667 L1.92584877,-0.0575399986 L1.80918015,-0.0575399986 L1.80918015,1.72676 L0.000816681669,-0.0815733319 L-0.081784695,0.000793334724 L1.72681211,1.80912667 L-0.0575176239,1.80912667 L-0.0575176239,1.92579333 L1.80918015,1.92579333 L1.80918015,8.69246 L-0.0575176239,8.69246 L-0.0575176239,8.80912667 L1.80918015,8.80912667 L1.80918015,13.94246 L-0.0575176239,13.94246 L-0.0575176239,14.0591267 L1.80918015,14.0591267 L1.80918015,19.19246 L-0.0575176239,19.19246 L-0.0575176239,19.3091267 L1.80918015,19.3091267 L1.80918015,26.0757933 L-0.0575176239,26.0757933 L-0.0575176239,26.19246 L1.72681211,26.19246 L-0.081784695,28.0007933 L0.000816681669,28.0833933 L1.80918015,26.27506 L1.80918015,28.0591267 L1.92584877,28.0591267 L1.92584877,26.19246 L8.69262821,26.19246 L8.69262821,28.0591267 L8.80929682,28.0591267 L8.80929682,26.19246 L13.9427157,26.19246 L13.9427157,28.0591267 L14.0593843,28.0591267 L14.0593843,26.19246 L19.1928032,26.19246 L19.1928032,28.0591267 L19.3094718,28.0591267 L19.3094718,26.19246 L26.0762513,26.19246 L26.0762513,28.0591267 L26.1929199,28.0591267 L26.1929199,26.27506 L28.2346206,28.3167267 L28.317222,28.2341267 Z" fill="#FFFFFF" opacity="0.5" mask="url(#mask-5)"></path>
                </g>
                <g id="app_画板-1" fill-rule="nonzero">
                    <rect id="矩形" fill="#0078F5" x="0" y="0" width="28.0005733" height="28.0001066"></rect>
                    <g id="编组" transform="translate(3.500058, 8.750000)" fill="#FFFFFF">
                        <polygon id="路径" points="18.0103587 6.22385965 16.9078062 6.22385965 16.9078062 5.137154 15.6207672 5.137154 15.6207672 6.22385965 14.5182147 6.22385965 14.5182147 7.49177388 15.6207672 7.49177388 15.6207672 8.57847953 16.9078062 8.57847953 16.9078062 7.49177388 18.0103587 7.49177388"></polygon>
                        <path d="M20.5838908,3.21263158 L11.9446825,3.21263158 L11.9446825,10.5030019 L20.5838908,10.5030019 L20.5838908,3.21263158 Z M19.2968518,4.48054581 L19.2968518,9.23672515 L13.2311757,9.23672515 L13.2311757,4.48054581 L19.2968518,4.48054581 Z" id="形状"></path>
                        <polygon id="路径" points="21.0101747 0.67625731 19.2968518 0.67625731 19.2968518 0.00545808967 18.0103587 0.00545808967 18.0103587 0.67625731 14.5182147 0.67625731 14.5182147 0.00545808967 13.2311757 0.00545808967 13.2311757 0.67625731 11.5178528 0.67625731 11.5178528 1.94471735 13.2311757 1.94471735 13.2311757 2.55547758 14.5182147 2.55547758 14.5182147 1.94471735 18.0103587 1.94471735 18.0103587 2.55547758 19.2968518 2.55547758 19.2968518 1.94471735 21.0101747 1.94471735"></polygon>
                        <path d="M6.21468447,7.64842105 C6.1671983,7.57255361 5.04335891,5.78666667 4.83376477,5.44007797 L5.93959217,4.79111111 C6.14318231,5.12842105 7.2970417,6.96179337 7.30850387,6.98035088 L6.21468447,7.64842105 Z" id="路径"></path>
                        <path d="M9.4939594,1.94471735 L5.90684309,1.94471735 C6.26892901,1.33320903 6.55591942,0.680252585 6.76159417,1.77632723e-15 L5.41342356,1.77632723e-15 C5.1695518,0.696531425 4.82175479,1.35218226 4.38182742,1.94471735 L4.38182742,3.21263158 L8.20528295,3.21263158 L8.20528295,8.77988304 C8.20348027,9.0322796 7.997561,9.23550852 7.74515833,9.2339961 L6.21686775,9.2339961 L6.21686775,10.5030019 L7.93892374,10.5030019 C8.50712034,10.5030019 8.85808136,10.2688499 9.05239259,10.0723587 C9.47922231,9.6417154 9.49832595,9.07461988 9.49614267,8.94089669 L9.49614267,3.20990253 L9.49614267,3.20990253 L9.4939594,1.94471735 Z" id="路径"></path>
                        <path d="M1.87706832,10.5046394 C0.843288909,10.5046394 0.00163745419,9.67555556 0.00163745419,8.65598441 L0.00163745419,8.44584795 L1.29085972,8.44584795 L1.29085972,8.65598441 C1.30054807,8.97411277 1.56124335,9.22698555 1.8795245,9.22698555 C2.19780566,9.22698555 2.45850093,8.97411277 2.46818928,8.65598441 L2.46818928,8.44584795 L3.75522828,8.44584795 L3.75522828,8.65598441 C3.75304501,9.67337232 2.91139355,10.5046394 1.87706832,10.5046394 Z" id="路径"></path>
                        <path d="M3.74704101,1.77632723e-15 L2.34974676,1.77632723e-15 C1.64564146,1.51680312 0.0180119961,3.18861598 0,3.21263158 L0,4.48054581 L2.11831991,4.48054581 C1.15276775,5.59563353 0.0152829058,6.50768031 0.00163745419,6.52132554 L0.00163745419,7.78923977 L3.74704101,7.78923977 L3.74704101,6.52132554 L1.91691304,6.52132554 C2.58340442,5.89388113 3.19562932,5.2111878 3.74704101,4.48054581 L3.74704101,3.21263158 L1.68221127,3.21263158 C2.32791404,2.42666667 3.29237456,1.15493177 3.74704101,1.77632723e-15 Z" id="路径"></path>
                    </g>
                </g>
            </g>
        </g>
    </g>
</svg>